<svg width="33" height="33" viewBox="0 0 33 33" fill="none" xmlns="http://www.w3.org/2000/svg">
<path d="M2.02344 26V6.09375H8.8457C11.097 6.09375 12.8105 6.54492 13.9863 7.44727C15.1621 8.34961 15.75 9.69401 15.75 11.4805C15.75 12.3919 15.5039 13.2122 15.0117 13.9414C14.5195 14.6706 13.7995 15.2357 12.8516 15.6367C13.9271 15.9284 14.7565 16.4798 15.3398 17.291C15.9323 18.0931 16.2285 19.0592 16.2285 20.1895C16.2285 22.0579 15.627 23.4935 14.4238 24.4961C13.2298 25.4987 11.5163 26 9.2832 26H2.02344ZM5.48242 17.0176V23.2383H9.32422C10.4089 23.2383 11.2565 22.9694 11.8672 22.4316C12.4779 21.8939 12.7832 21.1465 12.7832 20.1895C12.7832 18.1204 11.7259 17.0632 9.61133 17.0176H5.48242ZM5.48242 14.4746H8.87305C9.94857 14.4746 10.7871 14.2331 11.3887 13.75C11.9993 13.2578 12.3047 12.5651 12.3047 11.6719C12.3047 10.6875 12.0221 9.97656 11.457 9.53906C10.901 9.10156 10.0306 8.88281 8.8457 8.88281H5.48242V14.4746ZM25.8809 26.2734C23.7754 26.2734 22.0664 25.6126 20.7539 24.291C19.4505 22.9603 18.7988 21.1921 18.7988 18.9863V18.5762C18.7988 17.0996 19.0814 15.7826 19.6465 14.625C20.2207 13.4583 21.0228 12.5514 22.0527 11.9043C23.0827 11.2572 24.2311 10.9336 25.498 10.9336C27.5124 10.9336 29.0664 11.5762 30.1602 12.8613C31.263 14.1465 31.8145 15.9648 31.8145 18.3164V19.6562H22.1484C22.2487 20.8776 22.6543 21.8438 23.3652 22.5547C24.0853 23.2656 24.9876 23.6211 26.0723 23.6211C27.5944 23.6211 28.834 23.0059 29.791 21.7754L31.582 23.4844C30.9896 24.3685 30.1966 25.0566 29.2031 25.5488C28.2188 26.0319 27.1113 26.2734 25.8809 26.2734ZM25.4844 13.5996C24.5729 13.5996 23.8346 13.9186 23.2695 14.5566C22.7135 15.1947 22.3581 16.0833 22.2031 17.2227H28.5332V16.9766C28.4603 15.8646 28.1641 15.026 27.6445 14.4609C27.125 13.8867 26.4049 13.5996 25.4844 13.5996Z" fill="white"/>
<path d="M21 8H30" stroke="white" stroke-width="2"/>
</svg>
