<svg width="63" height="64" viewBox="0 0 63 64" fill="none" xmlns="http://www.w3.org/2000/svg">
<path d="M8 2.00001L54 2.00001" stroke="#368CFE" stroke-width="3"/>
<line x1="2.5" y1="55" x2="2.5" y2="11" stroke="#368CFE" stroke-width="3"/>
<path d="M8.07526 61.5755L55.3576 61.5755" stroke="#368CFE" stroke-width="3"/>
<path d="M61 55L61 11" stroke="#368CFE" stroke-width="3"/>
<path d="M9 2C1.43483 2 2.40139 11.2444 2.40139 11.2444" stroke="#368CFE" stroke-width="3"/>
<path d="M61.0314 54.4532C61.5042 61.5755 54.8847 61.5755 54.8847 61.5755" stroke="#368CFE" stroke-width="3"/>
<path d="M2.5 55C2.5 61.1727 8.5 61.5 8.5 61.5" stroke="#368CFE" stroke-width="3"/>
<path d="M53.5 2.00001C60.5923 2.5422 61.0314 11.2444 61.0314 11.2444" stroke="#368CFE" stroke-width="3"/>
<line x1="33.5" y1="3.00001" x2="33.5" y2="63" stroke="#368CFE" stroke-width="3"/>
<line x1="47.5" y1="1.00001" x2="47.5" y2="61" stroke="#368CFE" stroke-width="3"/>
<line x1="18.5" y1="2.00001" x2="18.5" y2="62" stroke="#368CFE" stroke-width="3"/>
<path d="M33 32H60" stroke="#368CFE" stroke-width="3"/>
</svg>
