<?xml version="1.0" encoding="iso-8859-1"?>
<!-- Generator: Adobe Illustrator 19.0.0, SVG Export Plug-In . SVG Version: 6.00 Build 0)  -->
<svg version="1.1" id="Capa_1" xmlns="http://www.w3.org/2000/svg" xmlns:xlink="http://www.w3.org/1999/xlink" x="0px" y="0px"
	 viewBox="0 0 512 512" style="enable-background:new 0 0 512 512;" xml:space="preserve">
<g>
	<path style="fill:#42A3CC;" d="M90.982,237.661v214.058c7.523,6.343,15.423,12.267,23.646,17.721
		c0.554,0.376,1.118,0.742,1.682,1.108c1.379,0.909,2.769,1.797,4.18,2.675c1.348,0.846,2.696,1.682,4.065,2.487
		c1.17,0.711,2.351,1.4,3.542,2.09c6.05,3.5,12.267,6.76,18.62,9.749c2.132,1.024,4.284,2.006,6.457,2.947l252.834-252.834H90.982z
		 M146.362,418.993V293.041h125.942L146.362,418.993z"/>
	<path style="fill:#42A3CC;" d="M374.252,123.358c-1.034-2.094-3.57-2.953-5.664-1.918l-10.068,4.974l-44.582-0.752l0.002,0.004
		l-0.002-0.003l-152.583,75.375c-1.439,5.475-1.62,11.212-0.56,16.744c1.233,6.448,4.149,12.614,8.713,17.741
		c0.425,0.488,0.871,0.958,1.328,1.423c3.639,3.686,7.833,6.452,12.306,8.306l0.004,0.001l152.624-75.395v-0.001l0,0l26.494-35.863
		l10.068-4.974C374.428,127.987,375.287,125.451,374.252,123.358z"/>
</g>
<circle style="fill:#E8E8E8;" cx="256" cy="256" r="256"/>
<path style="fill:#51B0E0;" d="M480.656,41.941v336.896c-4.88,8.913-10.282,17.502-16.165,25.736
	c-1.358,1.912-2.759,3.814-4.18,5.684c-18.223,24.116-40.626,44.889-66.121,61.273c-2.215,1.431-4.462,2.832-6.74,4.18
	c-0.585,0.355-1.181,0.711-1.776,1.045c-10.031,5.925-20.501,11.159-31.357,15.673H157.689
	c-10.856-4.514-21.326-9.749-31.357-15.673c-0.596-0.334-1.191-0.69-1.776-1.045c-2.278-1.348-4.524-2.748-6.74-4.18
	c-25.496-16.384-47.898-37.157-66.121-61.273c-1.421-1.87-2.821-3.772-4.18-5.684c-5.883-8.234-11.285-16.823-16.165-25.736V41.941
	c0-6.269,5.078-11.358,11.358-11.358h426.59C475.568,30.583,480.656,35.672,480.656,41.941z"/>
<g>
	<path style="fill:#FCFCFC;" d="M462.893,44.167H49.113c-2.309,0-4.18,1.87-4.18,4.18v352.549c2.675,3.897,5.465,7.711,8.359,11.452
		V52.526h405.42v359.821c2.894-3.741,5.684-7.555,8.359-11.452V48.346C467.072,46.037,465.202,44.167,462.893,44.167z
		 M128.097,477.799h255.812c4.587-2.644,9.07-5.423,13.469-8.359H114.628C119.027,472.376,123.51,475.156,128.097,477.799z"/>
	<path style="fill:#FCFCFC;" d="M47.515,46.257v358.316c0.042,0.063,0.084,0.115,0.125,0.178c0.575,0.815,1.17,1.62,1.766,2.435
		c0.742,1.024,1.515,2.048,2.288,3.062v-5.413h64.616v65.714c1.379,0.909,2.769,1.797,4.18,2.675
		c1.348,0.846,2.696,1.682,4.065,2.487h262.896l0.627-0.376c0.878-0.522,1.766-1.066,2.633-1.609
		c1.672-1.034,3.333-2.09,4.974-3.176v-65.714h64.627v5.413c0.773-1.014,1.546-2.038,2.288-3.062
		c0.596-0.815,1.191-1.62,1.766-2.435c0.042-0.063,0.084-0.115,0.125-0.178V46.257H47.515z M116.311,400.655H51.694v-66.706h64.616
		V400.655z M116.311,329.769H51.694v-66.696h64.616V329.769z M116.311,258.893H51.694v-66.696h64.616V258.893z M116.311,188.018
		H51.694v-66.706h64.616V188.018z M116.311,117.132H51.694V50.436h64.616V117.132z M185.107,471.53H120.49v-66.696h64.616V471.53z
		 M185.107,400.655H120.49v-66.706h64.616V400.655z M185.107,329.769H120.49v-66.696h64.616V329.769z M185.107,258.893H120.49
		v-66.696h64.616V258.893z M185.107,188.018H120.49v-66.706h64.616V188.018z M185.107,117.132H120.49V50.436h64.616V117.132z
		 M253.913,471.53h-64.627v-66.696h64.627L253.913,471.53L253.913,471.53z M253.913,400.655h-64.627v-66.706h64.627L253.913,400.655
		L253.913,400.655z M253.913,329.769h-64.627v-66.696h64.627L253.913,329.769L253.913,329.769z M253.913,258.893h-64.627v-66.696
		h64.627L253.913,258.893L253.913,258.893z M253.913,188.018h-64.627v-66.706h64.627L253.913,188.018L253.913,188.018z
		 M253.913,117.132h-64.627V50.436h64.627L253.913,117.132L253.913,117.132z M322.709,471.53h-64.616v-66.696h64.616V471.53z
		 M322.709,400.655h-64.616v-66.706h64.616V400.655z M322.709,329.769h-64.616v-66.696h64.616V329.769z M322.709,258.893h-64.616
		v-66.696h64.616V258.893z M322.709,188.018h-64.616v-66.706h64.616V188.018z M322.709,117.132h-64.616V50.436h64.616V117.132z
		 M391.505,471.53h-64.616v-66.696h64.616V471.53z M391.505,400.655h-64.616v-66.706h64.616V400.655z M391.505,329.769h-64.616
		v-66.696h64.616V329.769z M391.505,258.893h-64.616v-66.696h64.616V258.893z M391.505,188.018h-64.616v-66.706h64.616V188.018z
		 M391.505,117.132h-64.616V50.436h64.616V117.132z M460.312,400.655h-64.627v-66.706h64.627V400.655z M460.312,329.769h-64.627
		v-66.696h64.627V329.769z M460.312,258.893h-64.627v-66.696h64.627V258.893z M460.312,188.018h-64.627v-66.706h64.627V188.018z
		 M460.312,117.132h-64.627V50.436h64.627V117.132z"/>
</g>
<path style="fill:#FFCF4B;" d="M86.28,232.959v214.695c1.546,1.369,3.114,2.727,4.702,4.065
	c7.523,6.343,15.423,12.267,23.646,17.721c0.554,0.376,1.118,0.742,1.682,1.108c1.379,0.909,2.769,1.797,4.18,2.675
	c1.348,0.846,2.696,1.682,4.065,2.487c1.17,0.711,2.351,1.4,3.542,2.09c6.05,3.5,12.267,6.76,18.62,9.749l249.887-249.887
	l4.702-4.702H86.28z M262.899,293.041L146.362,409.589l-4.702,4.702V288.339h125.942L262.899,293.041z"/>
<path style="fill:#F44E72;" d="M313.187,107.544l-152.583,75.375c-1.439,5.475-1.62,11.212-0.56,16.744
	c1.233,6.448,4.149,12.614,8.713,17.741c0.425,0.488,0.871,0.958,1.328,1.423c3.639,3.686,7.833,6.452,12.307,8.306l0.004,0.001
	L335.02,151.74l0.001-0.004l-0.008-0.018l-8.933-25.724l-12.879-18.431L313.187,107.544z"/>
<path style="fill:#E22952;" d="M328.483,138.501l-159.726,78.903c0.425,0.488,0.871,0.958,1.328,1.423
	c3.639,3.686,7.833,6.452,12.307,8.306l152.63-75.398L328.483,138.501z"/>
<path style="fill:#F96D8C;" d="M313.187,107.544l-152.583,75.375c-1.439,5.475-1.62,11.212-0.56,16.744L319.73,120.78l-6.53-13.217
	L313.187,107.544z"/>
<polygon style="fill:#E8E8E8;" points="367.001,108.45 335.02,151.74 313.186,107.542 "/>
<polygon style="fill:#D6D6D6;" points="335.02,151.74 367.001,108.45 326.779,135.057 "/>
<path style="fill:#535B70;" d="M373.501,105.239L373.501,105.239c1.034,2.094,0.176,4.63-1.918,5.664l-10.291,5.083l-3.746-7.583
	l10.291-5.083C369.93,102.286,372.466,103.145,373.501,105.239z"/>
<g>
</g>
<g>
</g>
<g>
</g>
<g>
</g>
<g>
</g>
<g>
</g>
<g>
</g>
<g>
</g>
<g>
</g>
<g>
</g>
<g>
</g>
<g>
</g>
<g>
</g>
<g>
</g>
<g>
</g>
</svg>
