<svg width="153" height="52" viewBox="0 0 153 52" fill="none" xmlns="http://www.w3.org/2000/svg">
<path d="M27.334 37.8032C26.25 39.356 24.7339 40.5205 22.7856 41.2969C20.8521 42.0586 18.5962 42.4395 16.0181 42.4395C13.4106 42.4395 11.0962 41.8315 9.07471 40.6157C7.05322 39.3853 5.48584 37.6421 4.37256 35.3862C3.27393 33.1304 2.70996 30.5156 2.68066 27.542V24.7515C2.68066 19.9321 3.80127 16.1968 6.04248 13.5454C8.29834 10.894 11.4624 9.56836 15.5347 9.56836C18.8745 9.56836 21.5625 10.4253 23.5986 12.1392C25.6348 13.8384 26.8799 16.2554 27.334 19.3901H23.1152C22.3242 15.1567 19.8047 13.04 15.5566 13.04C12.7295 13.04 10.5835 14.0361 9.11865 16.0283C7.66846 18.0059 6.93604 20.877 6.92139 24.6416V27.2563C6.92139 30.8452 7.7417 33.7017 9.38232 35.8257C11.0229 37.9351 13.2422 38.9897 16.04 38.9897C17.6221 38.9897 19.0063 38.814 20.1929 38.4624C21.3794 38.1108 22.3608 37.5176 23.1372 36.6826V29.4976H15.7324V26.0698H27.334V37.8032ZM32.6733 29.8931C32.6733 27.564 33.1274 25.4692 34.0356 23.6089C34.9585 21.7485 36.2329 20.313 37.8589 19.3022C39.4995 18.2915 41.3672 17.7861 43.4619 17.7861C46.6992 17.7861 49.314 18.9067 51.3062 21.1479C53.313 23.3892 54.3164 26.3701 54.3164 30.0908V30.3765C54.3164 32.6909 53.8696 34.771 52.9761 36.6167C52.0972 38.4478 50.8301 39.876 49.1748 40.9014C47.5342 41.9268 45.6445 42.4395 43.5059 42.4395C40.2832 42.4395 37.6685 41.3188 35.6616 39.0776C33.6694 36.8364 32.6733 33.8701 32.6733 30.1787V29.8931ZM36.7603 30.3765C36.7603 33.0132 37.3682 35.1299 38.584 36.7266C39.8145 38.3232 41.4551 39.1216 43.5059 39.1216C45.5713 39.1216 47.2119 38.3159 48.4277 36.7046C49.6436 35.0786 50.2515 32.8081 50.2515 29.8931C50.2515 27.2856 49.6289 25.1763 48.3838 23.5649C47.1533 21.939 45.5127 21.126 43.4619 21.126C41.4551 21.126 39.8364 21.9243 38.606 23.521C37.3755 25.1177 36.7603 27.4028 36.7603 30.3765ZM58.3374 29.8931C58.3374 27.564 58.7915 25.4692 59.6997 23.6089C60.6226 21.7485 61.897 20.313 63.5229 19.3022C65.1636 18.2915 67.0312 17.7861 69.126 17.7861C72.3633 17.7861 74.978 18.9067 76.9702 21.1479C78.9771 23.3892 79.9805 26.3701 79.9805 30.0908V30.3765C79.9805 32.6909 79.5337 34.771 78.6401 36.6167C77.7612 38.4478 76.4941 39.876 74.8389 40.9014C73.1982 41.9268 71.3086 42.4395 69.1699 42.4395C65.9473 42.4395 63.3325 41.3188 61.3257 39.0776C59.3335 36.8364 58.3374 33.8701 58.3374 30.1787V29.8931ZM62.4243 30.3765C62.4243 33.0132 63.0322 35.1299 64.248 36.7266C65.4785 38.3232 67.1191 39.1216 69.1699 39.1216C71.2354 39.1216 72.876 38.3159 74.0918 36.7046C75.3076 35.0786 75.9155 32.8081 75.9155 29.8931C75.9155 27.2856 75.293 25.1763 74.0479 23.5649C72.8174 21.939 71.1768 21.126 69.126 21.126C67.1191 21.126 65.5005 21.9243 64.27 23.521C63.0396 25.1177 62.4243 27.4028 62.4243 30.3765ZM84.1113 29.915C84.1113 26.209 84.9683 23.2646 86.6821 21.082C88.396 18.8848 90.6665 17.7861 93.4937 17.7861C96.394 17.7861 98.6572 18.8115 100.283 20.8623L100.481 18.2256H104.194V41.4287C104.194 44.5049 103.279 46.9292 101.448 48.7017C99.6313 50.4741 97.1851 51.3604 94.1089 51.3604C92.395 51.3604 90.7178 50.9941 89.0771 50.2617C87.4365 49.5293 86.1841 48.5259 85.3198 47.2515L87.4292 44.8125C89.1724 46.9658 91.3037 48.0425 93.8232 48.0425C95.8008 48.0425 97.3389 47.4858 98.4375 46.3726C99.5508 45.2593 100.107 43.6919 100.107 41.6704V39.627C98.4814 41.502 96.2622 42.4395 93.4497 42.4395C90.6665 42.4395 88.4106 41.3188 86.6821 39.0776C84.9683 36.8364 84.1113 33.7822 84.1113 29.915ZM88.1982 30.3765C88.1982 33.0571 88.7476 35.1665 89.8462 36.7046C90.9448 38.228 92.4829 38.9897 94.4604 38.9897C97.0239 38.9897 98.9062 37.8252 100.107 35.4961V24.6416C98.8623 22.3711 96.9946 21.2358 94.5044 21.2358C92.5269 21.2358 90.9814 22.0049 89.8682 23.543C88.7549 25.0811 88.1982 27.3589 88.1982 30.3765ZM114.763 42H110.698V8.25H114.763V42ZM131.155 42.4395C127.932 42.4395 125.31 41.3848 123.289 39.2754C121.267 37.1514 120.256 34.3169 120.256 30.772V30.0249C120.256 27.6665 120.703 25.5645 121.597 23.7188C122.505 21.8584 123.765 20.4082 125.376 19.3682C127.002 18.3135 128.76 17.7861 130.649 17.7861C133.74 17.7861 136.143 18.8042 137.856 20.8403C139.57 22.8765 140.427 25.7915 140.427 29.5854V31.2773H124.321C124.38 33.6211 125.061 35.5181 126.365 36.9683C127.683 38.4038 129.353 39.1216 131.375 39.1216C132.81 39.1216 134.026 38.8286 135.022 38.2427C136.018 37.6567 136.89 36.8804 137.637 35.9136L140.12 37.8472C138.127 40.9087 135.139 42.4395 131.155 42.4395ZM130.649 21.126C129.009 21.126 127.632 21.7266 126.519 22.9277C125.405 24.1143 124.717 25.7842 124.453 27.9375H136.362V27.6299C136.245 25.5645 135.688 23.9678 134.692 22.8398C133.696 21.6973 132.349 21.126 130.649 21.126Z" fill="#D4D8E4"/>
</svg>
