<svg width="115" height="43" viewBox="0 0 115 43" fill="none" xmlns="http://www.w3.org/2000/svg">
<path d="M0 8H20.5" stroke="#D4D8E4" stroke-width="3"/>
<path d="M0 2H20.5" stroke="#D4D8E4" stroke-width="3"/>
<path d="M5.5 18.5H14.5M0 35.5H20.5M0 41H20.5M5.5 13H14.5M5.5 24.5H14.5M5.5 29.5H14.5" stroke="#D4D8E4" stroke-width="3"/>
<path d="M80.8457 42.9878L79.7279 39.5101L82.0365 39.5344L80.8457 42.9878Z" fill="#D4D8E4"/>
<path d="M78 34H84V37H78V34Z" fill="#D4D8E4"/>
<path fill-rule="evenodd" clip-rule="evenodd" d="M86.693 4H104.5V1H87.3409L86.693 4ZM57.5 1H74.1511L74.911 3.97203L75.5 3.53036V4H57.5V1ZM77.5 9.5H77.0584L77.5 9.17381V9.5ZM75.5147 6.5L76.2651 9.5H58.5V6.5H75.5147ZM104.5 9.5H84.5V9.08983L84.7089 9.25347L85.3586 6.5H104.5V9.5ZM33 15H28.5V12H33H37.5V15H33ZM55 15H46V12H55V15ZM79.5 15H79.3102L79.5 14.8694V15ZM78.1565 12L78.9742 15H63.5V12H78.1565ZM99.5 15H83.5V14.558L84.1185 12H99.5V15ZM52.1928 20.5L53.4356 17.5H28.5V20.5H52.1928ZM98 20.5H64V17.5H98V20.5ZM88 26H74.5V23H88V26ZM93.75 26H89.5V23H93.75H96H98V26H96H93.75ZM53.5 26.5H28.5V23.5H52.0348L53.5 26.4498V26.5ZM72 26.5H63.5V23.5H72V26.5ZM37.5 28.5V31.5H28.5V28.5H37.5ZM72 31.5H63.5V28.5H72V31.5ZM85.5 31.5H76V28.5H85.5V31.5ZM98 28.5V31.5H89.5V28.5H98ZM55.5 32H46.5V29H55.5V32ZM55 37.5H23V34.5H55V37.5ZM65.5 37.5H57.5V34.5H65.5H65.5166H65.5331H65.5496H65.566H65.5824H65.5987H65.615H65.6313H65.6475H65.6636H65.6798H65.6958H65.7119H65.7279H65.7438H65.7597H65.7756H65.7914H65.8072H65.8229H65.8386H65.8542H65.8699H65.8854H65.9009H65.9164H65.9319H65.9473H65.9626H65.978H65.9932H66.0085H66.0237H66.0388H66.054H66.069H66.0841H66.0991H66.1141H66.129H66.1439H66.1587H66.1735H66.1883H66.203H66.2177H66.2324H66.247H66.2616H66.2761H66.2907H66.3051H66.3196H66.334H66.3483H66.3627H66.377H66.3912H66.4055H66.4197H66.4338H66.4479H66.462H66.4761H66.4901H66.5041H66.518H66.5319H66.5458H66.5597H66.5735H66.5873H66.601H66.6147H66.6284H66.6421H66.6557H66.6693H66.6828H66.6963H66.7098H66.7233H66.7367H66.7501H66.7635H66.7768H66.7902H66.8034H66.8167H66.8299H66.8431H66.8563H66.8694H66.8825H66.8956H66.9086H66.9216H66.9346H66.9476H66.9605H66.9734H66.9863H66.9991H67.0119H67.0247H67.0375H67.0502H67.063H67.0756H67.0883H67.1009H67.1135H67.1261H67.1387H67.1512H67.1637H67.1762H67.1887H67.2011H67.2135H67.2259H67.2383H67.2506H67.2629H67.2752H67.2875H67.2997H67.3119H67.3241H67.3363H67.3485H67.3606H67.3727H67.3848H67.3968H67.4089H67.4209H67.4329H67.4449H67.4568H67.4688H67.4807H67.4926H67.5H67.5045H67.512H67.5163H67.524H67.5282H67.5359H67.54H67.5478H67.5518H67.5596H67.5636H67.5714H67.5753H67.5832H67.5871H67.5949H67.5988H67.6066H67.6105H67.6183H67.6222H67.6299H67.6338H67.6415H67.6455H67.653H67.6571H67.6646H67.6687H67.676H67.6803H67.6875H67.6919H67.6989H67.7035H67.7103H67.715H67.7216H67.7265H67.7329H67.738H67.7442H67.7495H67.7554H67.761H67.7666H67.7725H67.7778H67.7839H67.7889H67.7953H67.8H67.8068H67.8111H67.8182H67.8221H67.8295H67.8331H67.8409H67.8441H67.8523H67.855H67.8636H67.8659H67.8749H67.8767H67.8862H67.8876H67.8975H67.8984H67.9088H67.9091H67.9199H67.9201H67.9306H67.9314H67.9412H67.9426H67.9519H67.9538H67.9625H67.965H67.9731H67.9762H67.9836H67.9874H67.9941H67.9986H68.0046H68.0098H68.015H68.0209H68.0254H68.0321H68.0358H68.0432H68.0462H68.0543H68.0565H68.0654H68.0668H68.0765H68.0771H68.0873H68.0876H68.0975H68.0987H68.1077H68.1098H68.1178H68.1208H68.1279H68.1319H68.138H68.1429H68.1481H68.1539H68.1581H68.1649H68.1681H68.1759H68.1781H68.1869H68.188H68.1979H68.2078H68.2089H68.2177H68.2198H68.2275H68.2308H68.2373H68.2418H68.2471H68.2527H68.2568H68.2636H68.2665H68.2746H68.2762H68.2855H68.2859H68.2955H68.2964H68.3051H68.3073H68.3147H68.3182H68.3242H68.3291H68.3338H68.3399H68.3433H68.3508H68.3527H68.3617H68.3622H68.3716H68.3725H68.381H68.3834H68.3904H68.3942H68.3997H68.4051H68.4091H68.4159H68.4184H68.4268H68.4276H68.4369H68.4376H68.4461H68.4484H68.4553H68.4592H68.4645H68.47H68.4736H68.4808H68.4827H68.4916H68.4918H68.5009H68.5024H68.51H68.5132H68.519H68.524H68.528H68.5348H68.537H68.5456H68.546H68.5549H68.5564H68.5638H68.5671H68.5727H68.5779H68.5816H68.5887H68.5904H68.5993H68.5994H68.6081H68.6102H68.6168H68.621H68.6256H68.6317H68.6343H68.6425H68.6431H68.6518H68.6532H68.6604H68.664H68.6691H68.6748H68.6777H68.6855H68.6863H68.6949H68.6963H68.7035H68.707H68.7121H68.7178H68.7206H68.7285H68.7291H68.7376H68.7393H68.7461H68.75H68.7545H68.7607H68.7629H68.7714H68.7715H68.7798H68.7822H68.7881H68.793H68.7965H68.8037H68.8048H68.8132H68.8145H68.8215H68.8252H68.8297H68.836H68.838H68.8463H68.8468H68.8545H68.8575H68.8627H68.8683H68.8709H68.879H68.8791H68.8872H68.8898H68.8954H68.9006H68.9035H68.9113H68.9116H68.9197H68.9221H68.9278H68.9329H68.9359H68.9436H68.9439H68.9519H68.9544H68.9599H68.9652H68.9679H68.9759H68.976H68.9839H68.9868H68.9918H68.9976H68.9998H69.0077H69.0084H69.0156H69.0192H69.0235H69.03H69.0314H69.0392H69.0408H69.0471H69.0516H69.0549H69.0624H69.0628H69.0706H69.0732H69.0784H69.0841H69.0861H69.0939H69.0949H69.1017H69.1058H69.1094H69.1166H69.1171H69.1248H69.1275H69.1326H69.1383H69.1402H69.1479H69.1492H69.1556H69.1601H69.1632H69.1709H69.1709H69.1785H69.1818H69.1861H69.1927H69.1938H69.2013H69.2036H69.2089H69.2145H69.2165H69.2241H69.2254H69.2316H69.2364H69.2392H69.2467H69.2473H69.2542H69.2582H69.2617H69.2692H69.2692H69.2767H69.2802H69.2842H69.2911H69.2917H69.2992H69.3021H69.3066H69.3131H69.3141H69.3215H69.3241H69.3289H69.3351H69.3364H69.3438H69.3461H69.3512H69.3571H69.3586H69.366H69.3681H69.3733H69.3792H69.3807H69.3881H69.3902H69.3954H69.4013H69.4028H69.4101H69.4124H69.4175H69.4235H69.4248H69.4321H69.4346H69.4394H69.4457H69.4467H69.454H69.4568H69.4613H69.4679H69.4686H69.4759H69.4791H69.4832H69.4902H69.4905H69.4977H69.5014H69.505H69.5123H69.5126H69.5195H69.5238H69.5268H69.534H69.535H69.5413H69.5462H69.5485H69.5557H69.5574H69.563H69.5686H69.5702H69.5774H69.5799H69.5846H69.5912H69.5918H69.5991H69.6025H69.6063H69.6135H69.6138H69.6207H69.6251H69.6279H69.6351H69.6364H69.6423H69.6477H69.6495H69.6566H69.6591H69.6638H69.6705H69.671H69.6782H69.6818H69.6854H69.6926H69.6932H69.6998H69.7047H69.7069H69.7141H69.7161H69.7213H69.7275H69.7285H69.7356H69.739H69.7428H69.75H69.7505H69.7572H69.762H69.7644H69.7715H69.7735H69.7787H69.785H69.7859H69.7931H69.7965H69.8002H69.8074H69.8081H69.8146H69.8197H69.8218H69.829H69.8313H69.8362H69.8429H69.8434H69.8505H69.8545H69.8577H69.8649H69.8662H69.8721H69.8778H69.8793H69.8865H69.8895H69.8937H69.9009H69.9012H69.9082H69.9129H69.9154H69.9226H69.9247H69.9298H69.9364H69.937H69.9443H69.9482H69.9515H69.9587H69.96H69.966H69.9718H69.9732H69.9805H69.9837H69.9877H69.995H69.9955H70.0023H70.0074H70.0095H70.0168H70.0193H70.0241H70.0312H70.0314H70.0387H70.0432H70.046H70.0533H70.0551H70.0606H70.0671H70.0679H70.0752H70.0791H70.0825H70.0899H70.0911H70.0972H70.1032H70.1046H70.1119H70.1152H70.1193H70.1267H70.1273H70.134H70.1394H70.1414H70.1488H70.1515H70.1562H70.1636H70.1637H70.1711H70.1759H70.1785H70.1859H70.1881H70.1934H70.2003H70.2008H70.2083H70.2125H70.2158H70.2233H70.2248H70.2308H70.2371H70.2383H70.2458H70.2494H70.2533H70.2608H70.2617H70.2684H70.2741H70.2759H70.2835H70.2865H70.2911H70.2987H70.2989H70.3062H70.3113H70.3139H70.3215H70.3238H70.3291H70.3363H70.3368H70.3444H70.3488H70.3521H70.3598H70.3613H70.3674H70.3739H70.3752H70.3829H70.3865H70.3906H70.3983H70.3991H70.4061H70.4117H70.4139H70.4216H70.4244H70.4294H70.437H70.4372H70.4451H70.4498H70.4529H70.4608H70.4625H70.4686H70.4753H70.4765H70.4844H70.4881H70.4923H70.5002H70.5009H70.5082H70.5137H70.5161H70.5241H70.5266H70.5321H70.5395H70.5401H70.5481H70.5524H70.5561H70.5641H70.5654H70.5722H70.5784H70.5803H70.5884H70.5914H70.5965H70.6044H70.6046H70.6128H70.6175H70.6209H70.6291H70.6306H70.6373H70.6437H70.6455H70.6537H70.6569H70.662H70.6701H70.6703H70.6785H70.6833H70.6868H70.6952H70.6966H70.7035H70.7098H70.7119H70.7202H70.7232H70.7286H70.7365H70.7371H70.7455H70.7499H70.7539H70.7624H70.7633H70.7709H70.7767H70.7794H70.7879H70.7902H70.7965H70.8037H70.8051H70.8137H70.8172H70.8223H70.8307H70.8309H70.8396H70.8443H70.8482H70.8569H70.8579H70.8657H70.8716H70.8744H70.8832H70.8853H70.8919H70.899H70.9007H70.9096H70.9127H70.9184H70.9265H70.9273H70.9362H70.9403H70.9451H70.954H70.9542H70.963H70.9681H70.972H70.981H70.982H70.99H70.9959H70.9991H71.0082H71.0099H71.0173H71.0239H71.0264H71.0355H71.038H71.0447H71.0521H71.0539H71.0631H71.0662H71.0724H71.0803H71.0816H71.0909H71.0945H71.1003H71.1088H71.1096H71.119H71.123H71.1284H71.1373H71.1378H71.1473H71.1517H71.1567H71.166H71.1662H71.1758H71.1804H71.1853H71.1949H71.1949H71.2045H71.2093H71.2141H71.2238H71.2239H71.2335H71.2384H71.2432H71.2529H71.253H71.2627H71.2676H71.2725H71.2823H71.2823H71.2922H71.297H71.3021H71.3117H71.312H71.3219H71.3265H71.3319H71.3413H71.3419H71.3519H71.3561H71.362H71.371H71.3721H71.3822H71.3859H71.3923H71.4009H71.4025H71.4127H71.4159H71.4229H71.431H71.4332H71.4435H71.446H71.4538H71.4612H71.4642H71.4746H71.4763H71.485H71.4915H71.4954H71.5059H71.5068H71.5164H71.522H71.5269H71.5374H71.5375H71.5481H71.5527H71.5588H71.5681H71.5694H71.5801H71.5836H71.5909H71.5991H71.6016H71.6124H71.6146H71.6233H71.6301H71.6341H71.645H71.6458H71.6559H71.6614H71.6669H71.6771H71.6779H71.6889H71.6928H71.7H71.7086H71.7111H71.7222H71.7244H71.7334H71.7403H71.7446H71.7558H71.7562H71.7671H71.7721H71.7784H71.7881H71.7897H71.8011H71.8042H71.8125H71.8202H71.824H71.8354H71.8364H71.847H71.8525H71.8585H71.8687H71.8701H71.8817H71.885H71.8934H71.9013H71.9051H71.9168H71.9176H71.9286H71.934H71.9404H71.9504H71.9522H71.9641H71.9669H71.976H71.9834H71.988H72V37.5H71.988H71.9834H71.976H71.9669H71.9641H71.9522H71.9504H71.9404H71.934H71.9286H71.9176H71.9168H71.9051H71.9013H71.8934H71.885H71.8817H71.8701H71.8687H71.8585H71.8525H71.847H71.8364H71.8354H71.824H71.8202H71.8125H71.8042H71.8011H71.7897H71.7881H71.7784H71.7721H71.7671H71.7562H71.7558H71.7446H71.7403H71.7334H71.7244H71.7222H71.7111H71.7086H71.7H71.6928H71.6889H71.6779H71.6771H71.6669H71.6614H71.6559H71.6458H71.645H71.6341H71.6301H71.6233H71.6146H71.6124H71.6016H71.5991H71.5909H71.5836H71.5801H71.5694H71.5681H71.5588H71.5527H71.5481H71.5375H71.5374H71.5269H71.522H71.5164H71.5068H71.5059H71.4954H71.4915H71.485H71.4763H71.4746H71.4642H71.4612H71.4538H71.446H71.4435H71.4332H71.431H71.4229H71.4159H71.4127H71.4025H71.4009H71.3923H71.3859H71.3822H71.3721H71.371H71.362H71.3561H71.3519H71.3419H71.3413H71.3319H71.3265H71.3219H71.312H71.3117H71.3021H71.297H71.2922H71.2823H71.2823H71.2725H71.2676H71.2627H71.253H71.2529H71.2432H71.2384H71.2335H71.2239H71.2238H71.2141H71.2093H71.2045H71.1949H71.1949H71.1853H71.1804H71.1758H71.1662H71.166H71.1567H71.1517H71.1473H71.1378H71.1373H71.1284H71.123H71.119H71.1096H71.1088H71.1003H71.0945H71.0909H71.0816H71.0803H71.0724H71.0662H71.0631H71.0539H71.0521H71.0447H71.038H71.0355H71.0264H71.0239H71.0173H71.0099H71.0082H70.9991H70.9959H70.99H70.982H70.981H70.972H70.9681H70.963H70.9542H70.954H70.9451H70.9403H70.9362H70.9273H70.9265H70.9184H70.9127H70.9096H70.9007H70.899H70.8919H70.8853H70.8832H70.8744H70.8716H70.8657H70.8579H70.8569H70.8482H70.8443H70.8396H70.8309H70.8307H70.8223H70.8172H70.8137H70.8051H70.8037H70.7965H70.7902H70.7879H70.7794H70.7767H70.7709H70.7633H70.7624H70.7539H70.7499H70.7455H70.7371H70.7365H70.7286H70.7232H70.7202H70.7119H70.7098H70.7035H70.6966H70.6952H70.6868H70.6833H70.6785H70.6703H70.6701H70.662H70.6569H70.6537H70.6455H70.6437H70.6373H70.6306H70.6291H70.6209H70.6175H70.6128H70.6046H70.6044H70.5965H70.5914H70.5884H70.5803H70.5784H70.5722H70.5654H70.5641H70.5561H70.5524H70.5481H70.5401H70.5395H70.5321H70.5266H70.5241H70.5161H70.5137H70.5082H70.5009H70.5002H70.4923H70.4881H70.4844H70.4765H70.4753H70.4686H70.4625H70.4608H70.4529H70.4498H70.4451H70.4372H70.437H70.4294H70.4244H70.4216H70.4139H70.4117H70.4061H70.3991H70.3983H70.3906H70.3865H70.3829H70.3752H70.3739H70.3674H70.3613H70.3598H70.3521H70.3488H70.3444H70.3368H70.3363H70.3291H70.3238H70.3215H70.3139H70.3113H70.3062H70.2989H70.2987H70.2911H70.2865H70.2835H70.2759H70.2741H70.2684H70.2617H70.2608H70.2533H70.2494H70.2458H70.2383H70.2371H70.2308H70.2248H70.2233H70.2158H70.2125H70.2083H70.2008H70.2003H70.1934H70.1881H70.1859H70.1785H70.1759H70.1711H70.1637H70.1636H70.1562H70.1515H70.1488H70.1414H70.1394H70.134H70.1273H70.1267H70.1193H70.1152H70.1119H70.1046H70.1032H70.0972H70.0911H70.0899H70.0825H70.0791H70.0752H70.0679H70.0671H70.0606H70.0551H70.0533H70.046H70.0432H70.0387H70.0314H70.0312H70.0241H70.0193H70.0168H70.0095H70.0074H70.0023H69.9955H69.995H69.9877H69.9837H69.9805H69.9732H69.9718H69.966H69.96H69.9587H69.9515H69.9482H69.9443H69.937H69.9364H69.9298H69.9247H69.9226H69.9154H69.9129H69.9082H69.9012H69.9009H69.8937H69.8895H69.8865H69.8793H69.8778H69.8721H69.8662H69.8649H69.8577H69.8545H69.8505H69.8434H69.8429H69.8362H69.8313H69.829H69.8218H69.8197H69.8146H69.8081H69.8074H69.8002H69.7965H69.7931H69.7859H69.785H69.7787H69.7735H69.7715H69.7644H69.762H69.7572H69.7505H69.75H69.7428H69.739H69.7356H69.7285H69.7275H69.7213H69.7161H69.7141H69.7069H69.7047H69.6998H69.6932H69.6926H69.6854H69.6818H69.6782H69.671H69.6705H69.6638H69.6591H69.6566H69.6495H69.6477H69.6423H69.6364H69.6351H69.6279H69.6251H69.6207H69.6138H69.6135H69.6063H69.6025H69.5991H69.5918H69.5912H69.5846H69.5799H69.5774H69.5702H69.5686H69.563H69.5574H69.5557H69.5485H69.5462H69.5413H69.535H69.534H69.5268H69.5238H69.5195H69.5126H69.5123H69.505H69.5014H69.4977H69.4905H69.4902H69.4832H69.4791H69.4759H69.4686H69.4679H69.4613H69.4568H69.454H69.4467H69.4457H69.4394H69.4346H69.4321H69.4248H69.4235H69.4175H69.4124H69.4101H69.4028H69.4013H69.3954H69.3902H69.3881H69.3807H69.3792H69.3733H69.3681H69.366H69.3586H69.3571H69.3512H69.3461H69.3438H69.3364H69.3351H69.3289H69.3241H69.3215H69.3141H69.3131H69.3066H69.3021H69.2992H69.2917H69.2911H69.2842H69.2802H69.2767H69.2692H69.2692H69.2617H69.2582H69.2542H69.2473H69.2467H69.2392H69.2364H69.2316H69.2254H69.2241H69.2165H69.2145H69.2089H69.2036H69.2013H69.1938H69.1927H69.1861H69.1818H69.1785H69.1709H69.1709H69.1632H69.1601H69.1556H69.1492H69.1479H69.1402H69.1383H69.1326H69.1275H69.1248H69.1171H69.1166H69.1094H69.1058H69.1017H69.0949H69.0939H69.0861H69.0841H69.0784H69.0732H69.0706H69.0628H69.0624H69.0549H69.0516H69.0471H69.0408H69.0392H69.0314H69.03H69.0235H69.0192H69.0156H69.0084H69.0077H68.9998H68.9976H68.9918H68.9868H68.9839H68.976H68.9759H68.9679H68.9652H68.9599H68.9544H68.9519H68.9439H68.9436H68.9359H68.9329H68.9278H68.9221H68.9197H68.9116H68.9113H68.9035H68.9006H68.8954H68.8898H68.8872H68.8791H68.879H68.8709H68.8683H68.8627H68.8575H68.8545H68.8468H68.8463H68.838H68.836H68.8297H68.8252H68.8215H68.8145H68.8132H68.8048H68.8037H68.7965H68.793H68.7881H68.7822H68.7798H68.7715H68.7714H68.7629H68.7607H68.7545H68.75H68.7461H68.7393H68.7376H68.7291H68.7285H68.7206H68.7178H68.7121H68.707H68.7035H68.6963H68.6949H68.6863H68.6855H68.6777H68.6748H68.6691H68.664H68.6604H68.6532H68.6518H68.6431H68.6425H68.6343H68.6317H68.6256H68.621H68.6168H68.6102H68.6081H68.5994H68.5993H68.5904H68.5887H68.5816H68.5779H68.5727H68.5671H68.5638H68.5564H68.5549H68.546H68.5456H68.537H68.5348H68.528H68.524H68.519H68.5132H68.51H68.5024H68.5009H68.4918H68.4916H68.4827H68.4808H68.4736H68.47H68.4645H68.4592H68.4553H68.4484H68.4461H68.4376H68.4369H68.4276H68.4268H68.4184H68.4159H68.4091H68.4051H68.3997H68.3942H68.3904H68.3834H68.381H68.3725H68.3716H68.3622H68.3617H68.3527H68.3508H68.3433H68.3399H68.3338H68.3291H68.3242H68.3182H68.3147H68.3073H68.3051H68.2964H68.2955H68.2859H68.2855H68.2762H68.2746H68.2665H68.2636H68.2568H68.2527H68.2471H68.2418H68.2373H68.2308H68.2275H68.2198H68.2177H68.2089H68.2078H68.1979H68.188H68.1869H68.1781H68.1759H68.1681H68.1649H68.1581H68.1539H68.1481H68.1429H68.138H68.1319H68.1279H68.1208H68.1178H68.1098H68.1077H68.0987H68.0975H68.0876H68.0873H68.0771H68.0765H68.0668H68.0654H68.0565H68.0543H68.0462H68.0432H68.0358H68.0321H68.0254H68.0209H68.015H68.0098H68.0046H67.9986H67.9941H67.9874H67.9836H67.9762H67.9731H67.965H67.9625H67.9538H67.9519H67.9426H67.9412H67.9314H67.9306H67.9201H67.9199H67.9091H67.9088H67.8984H67.8975H67.8876H67.8862H67.8767H67.8749H67.8659H67.8636H67.855H67.8523H67.8441H67.8409H67.8331H67.8295H67.8221H67.8182H67.8111H67.8068H67.8H67.7953H67.7889H67.7839H67.7778H67.7725H67.7666H67.761H67.7554H67.7495H67.7442H67.738H67.7329H67.7265H67.7216H67.715H67.7103H67.7035H67.6989H67.6919H67.6875H67.6803H67.676H67.6687H67.6646H67.6571H67.653H67.6455H67.6415H67.6338H67.6299H67.6222H67.6183H67.6105H67.6066H67.5988H67.5949H67.5871H67.5832H67.5753H67.5714H67.5636H67.5596H67.5518H67.5478H67.54H67.5359H67.5282H67.524H67.5163H67.512H67.5045H67.5H67.4926H67.4807H67.4688H67.4568H67.4449H67.4329H67.4209H67.4089H67.3968H67.3848H67.3727H67.3606H67.3485H67.3363H67.3241H67.3119H67.2997H67.2875H67.2752H67.2629H67.2506H67.2383H67.2259H67.2135H67.2011H67.1887H67.1762H67.1637H67.1512H67.1387H67.1261H67.1135H67.1009H67.0883H67.0756H67.063H67.0502H67.0375H67.0247H67.0119H66.9991H66.9863H66.9734H66.9605H66.9476H66.9346H66.9216H66.9086H66.8956H66.8825H66.8694H66.8563H66.8431H66.8299H66.8167H66.8034H66.7902H66.7768H66.7635H66.7501H66.7367H66.7233H66.7098H66.6963H66.6828H66.6693H66.6557H66.6421H66.6284H66.6147H66.601H66.5873H66.5735H66.5597H66.5458H66.5319H66.518H66.5041H66.4901H66.4761H66.462H66.4479H66.4338H66.4197H66.4055H66.3912H66.377H66.3627H66.3483H66.334H66.3196H66.3051H66.2907H66.2761H66.2616H66.247H66.2324H66.2177H66.203H66.1883H66.1735H66.1587H66.1439H66.129H66.1141H66.0991H66.0841H66.069H66.054H66.0388H66.0237H66.0085H65.9932H65.978H65.9626H65.9473H65.9319H65.9164H65.9009H65.8854H65.8699H65.8542H65.8386H65.8229H65.8072H65.7914H65.7756H65.7597H65.7438H65.7279H65.7119H65.6958H65.6798H65.6636H65.6475H65.6313H65.615H65.5987H65.5824H65.566H65.5496H65.5331H65.5166H65.5ZM104 37.5H89.5V34.5H104V37.5ZM52 40V43H23V40H52ZM72 43H57.5V40H72V43ZM104 43H89.5V40H104V43Z" fill="#D4D8E4"/>
<circle cx="111" cy="39" r="4" fill="#D4D8E4"/>
<path fill-rule="evenodd" clip-rule="evenodd" d="M50.054 1H24V4H53V3.68853C52.9245 3.59591 52.8297 3.48232 52.7181 3.35345C52.3843 2.96832 51.9178 2.46826 51.376 1.98782C50.9362 1.59785 50.4866 1.25649 50.054 1Z" fill="#D4D8E4"/>
<path fill-rule="evenodd" clip-rule="evenodd" d="M53.662 6L24 6V9H56.9693C56.9614 8.17988 56.4119 7.39564 55.0284 6.6237C54.5913 6.37982 54.1231 6.17175 53.662 6Z" fill="#D4D8E4"/>
</svg>
