<svg width="179" height="42" viewBox="0 0 179 42" fill="none" xmlns="http://www.w3.org/2000/svg">
<path d="M58.5078 10.0938L64.25 25.3516L69.9785 10.0938H74.4492V30H71.0039V23.4375L71.3457 14.6602L65.4668 30H62.9922L57.127 14.6738L57.4688 23.4375V30H54.0234V10.0938H58.5078ZM81.7637 30H78.4414V15.207H81.7637V30ZM78.2363 11.3652C78.2363 10.8548 78.3958 10.431 78.7148 10.0938C79.043 9.75651 79.5078 9.58789 80.1094 9.58789C80.7109 9.58789 81.1758 9.75651 81.5039 10.0938C81.832 10.431 81.9961 10.8548 81.9961 11.3652C81.9961 11.8665 81.832 12.2858 81.5039 12.623C81.1758 12.9512 80.7109 13.1152 80.1094 13.1152C79.5078 13.1152 79.043 12.9512 78.7148 12.623C78.3958 12.2858 78.2363 11.8665 78.2363 11.3652ZM91.4707 27.6211C92.3001 27.6211 92.9883 27.3796 93.5352 26.8965C94.082 26.4134 94.3737 25.8164 94.4102 25.1055H97.541C97.5046 26.026 97.2174 26.8874 96.6797 27.6895C96.1419 28.4824 95.4128 29.1113 94.4922 29.5762C93.5716 30.041 92.5781 30.2734 91.5117 30.2734C89.4427 30.2734 87.8021 29.6035 86.5898 28.2637C85.3776 26.9238 84.7715 25.0736 84.7715 22.7129V22.3711C84.7715 20.1198 85.373 18.3197 86.5762 16.9707C87.7793 15.6126 89.4199 14.9336 91.498 14.9336C93.2572 14.9336 94.6882 15.4486 95.791 16.4785C96.903 17.4993 97.4863 18.8438 97.541 20.5117H94.4102C94.3737 19.6641 94.082 18.9668 93.5352 18.4199C92.9974 17.873 92.3092 17.5996 91.4707 17.5996C90.3952 17.5996 89.5658 17.9915 88.9824 18.7754C88.3991 19.5501 88.1029 20.7305 88.0938 22.3164V22.8496C88.0938 24.4538 88.3809 25.6523 88.9551 26.4453C89.5384 27.2292 90.377 27.6211 91.4707 27.6211ZM107.795 18.2422C107.357 18.1693 106.906 18.1328 106.441 18.1328C104.919 18.1328 103.894 18.7161 103.365 19.8828V30H100.043V15.207H103.215L103.297 16.8613C104.099 15.5762 105.211 14.9336 106.633 14.9336C107.107 14.9336 107.499 14.9974 107.809 15.125L107.795 18.2422ZM108.779 22.4668C108.779 21.0176 109.066 19.7142 109.641 18.5566C110.215 17.39 111.021 16.4967 112.061 15.877C113.1 15.248 114.294 14.9336 115.643 14.9336C117.639 14.9336 119.257 15.5762 120.496 16.8613C121.745 18.1465 122.419 19.8509 122.52 21.9746L122.533 22.7539C122.533 24.2122 122.251 25.5156 121.686 26.6641C121.13 27.8125 120.327 28.7012 119.279 29.3301C118.24 29.959 117.037 30.2734 115.67 30.2734C113.583 30.2734 111.91 29.5807 110.652 28.1953C109.404 26.8008 108.779 24.946 108.779 22.6309V22.4668ZM112.102 22.7539C112.102 24.276 112.416 25.4701 113.045 26.3359C113.674 27.1927 114.549 27.6211 115.67 27.6211C116.791 27.6211 117.661 27.1836 118.281 26.3086C118.91 25.4336 119.225 24.153 119.225 22.4668C119.225 20.972 118.901 19.7871 118.254 18.9121C117.616 18.0371 116.745 17.5996 115.643 17.5996C114.558 17.5996 113.697 18.0326 113.059 18.8984C112.421 19.7552 112.102 21.0404 112.102 22.7539ZM133.635 25.9805C133.635 25.388 133.389 24.9368 132.896 24.627C132.413 24.3171 131.607 24.0436 130.477 23.8066C129.346 23.5697 128.403 23.2689 127.646 22.9043C125.988 22.1022 125.158 20.9401 125.158 19.418C125.158 18.1419 125.696 17.0755 126.771 16.2188C127.847 15.362 129.214 14.9336 130.873 14.9336C132.641 14.9336 134.068 15.3711 135.152 16.2461C136.246 17.1211 136.793 18.2559 136.793 19.6504H133.471C133.471 19.0124 133.234 18.4837 132.76 18.0645C132.286 17.6361 131.657 17.4219 130.873 17.4219C130.144 17.4219 129.547 17.5905 129.082 17.9277C128.626 18.265 128.398 18.7161 128.398 19.2812C128.398 19.7917 128.613 20.1882 129.041 20.4707C129.469 20.7533 130.335 21.0404 131.639 21.332C132.942 21.6146 133.963 21.9564 134.701 22.3574C135.449 22.7493 136 23.2233 136.355 23.7793C136.72 24.3353 136.902 25.0098 136.902 25.8027C136.902 27.1335 136.351 28.2135 135.248 29.043C134.145 29.8633 132.701 30.2734 130.914 30.2734C129.702 30.2734 128.622 30.0547 127.674 29.6172C126.726 29.1797 125.988 28.5781 125.459 27.8125C124.93 27.0469 124.666 26.222 124.666 25.3379H127.893C127.938 26.1217 128.234 26.7279 128.781 27.1562C129.328 27.5755 130.053 27.7852 130.955 27.7852C131.83 27.7852 132.495 27.6211 132.951 27.293C133.407 26.9557 133.635 26.5182 133.635 25.9805ZM139.186 22.4668C139.186 21.0176 139.473 19.7142 140.047 18.5566C140.621 17.39 141.428 16.4967 142.467 15.877C143.506 15.248 144.7 14.9336 146.049 14.9336C148.045 14.9336 149.663 15.5762 150.902 16.8613C152.151 18.1465 152.826 19.8509 152.926 21.9746L152.939 22.7539C152.939 24.2122 152.657 25.5156 152.092 26.6641C151.536 27.8125 150.734 28.7012 149.686 29.3301C148.646 29.959 147.443 30.2734 146.076 30.2734C143.989 30.2734 142.316 29.5807 141.059 28.1953C139.81 26.8008 139.186 24.946 139.186 22.6309V22.4668ZM142.508 22.7539C142.508 24.276 142.822 25.4701 143.451 26.3359C144.08 27.1927 144.955 27.6211 146.076 27.6211C147.197 27.6211 148.068 27.1836 148.688 26.3086C149.316 25.4336 149.631 24.153 149.631 22.4668C149.631 20.972 149.307 19.7871 148.66 18.9121C148.022 18.0371 147.152 17.5996 146.049 17.5996C144.964 17.5996 144.103 18.0326 143.465 18.8984C142.827 19.7552 142.508 21.0404 142.508 22.7539ZM156.918 30V17.668H154.662V15.207H156.918V13.8535C156.918 12.2129 157.374 10.946 158.285 10.0527C159.197 9.15951 160.473 8.71289 162.113 8.71289C162.697 8.71289 163.316 8.79492 163.973 8.95898L163.891 11.5566C163.526 11.4837 163.102 11.4473 162.619 11.4473C161.033 11.4473 160.24 12.263 160.24 13.8945V15.207H163.248V17.668H160.24V30H156.918ZM169.838 11.6113V15.207H172.449V17.668H169.838V25.9258C169.838 26.4909 169.947 26.901 170.166 27.1562C170.394 27.4023 170.795 27.5254 171.369 27.5254C171.752 27.5254 172.139 27.4798 172.531 27.3887V29.959C171.775 30.1686 171.046 30.2734 170.344 30.2734C167.792 30.2734 166.516 28.8652 166.516 26.0488V17.668H164.082V15.207H166.516V11.6113H169.838Z" fill="#D4D8E4"/>
<rect width="20" height="20" fill="#D4D8E4"/>
<rect y="22" width="20" height="20" fill="#D4D8E4"/>
<rect x="23" width="20" height="20" fill="#D4D8E4"/>
<rect x="23" y="22" width="20" height="20" fill="#D4D8E4"/>
</svg>
