<svg width="46" height="65" viewBox="0 0 46 65" fill="none" xmlns="http://www.w3.org/2000/svg">
<path d="M1.5 11.3305C1.5 8.14951 3.71109 5.64882 7.77893 3.90355C11.8279 2.16639 17.3442 1.37676 22.963 1.51554C28.5764 1.65419 34.1189 2.71525 38.2021 4.53434C42.3864 6.3985 44.5 8.78326 44.5 11.3305V11.4122V11.4938V11.5754V11.657V11.7384V11.8199V11.9012V11.9826V12.0638V12.145V12.2262V12.3073V12.3884V12.4694V12.5503V12.6312V12.712V12.7928V12.8736V12.9543V13.0349V13.1155V13.196V13.2765V13.3569V13.4373V13.5177V13.598V13.6782V13.7584V13.8386V13.9187V13.9987V14.0787V14.1587V14.2386V14.3185V14.3983V14.4781V14.5578V14.6375V14.7172V14.7968V14.8764V14.9559V15.0354V15.1148V15.1942V15.2736V15.3529V15.4321V15.5114V15.5906V15.6697V15.7488V15.8279V15.9069V15.9859V16.0649V16.1438V16.2227V16.3015V16.3803V16.4591V16.5378V16.6165V16.6952V16.7738V16.8524V16.931V17.0095V17.088V17.1664V17.2448V17.3232V17.4016V17.4799V17.5582V17.6364V17.7147V17.7929V17.871V17.9492V18.0273V18.1053V18.1834V18.2614V18.3394V18.4173V18.4952V18.5731V18.651V18.7288V18.8067V18.8844V18.9622V19.0399V19.1177V19.1953V19.273V19.3506V19.4282V19.5058V19.5834V19.6609V19.7384V19.8159V19.8934V19.9708V20.0483V20.1257V20.203V20.2804V20.3577V20.4351V20.5124V20.5896V20.6669V20.7441V20.8214V20.8986V20.9757V21.0529V21.1301V21.2072V21.2843V21.3614V21.4385V21.5155V21.5926V21.6696V21.7466V21.8237V21.9006V21.9776V22.0546V22.1315V22.2085V22.2854V22.3623V22.4392V22.5161V22.593V22.6698V22.7467V22.8235V22.9003V22.9772V23.054V23.1308V23.2076V23.2844V23.3611V23.4379V23.5147V23.5914V23.6682V23.7449V23.8216V23.8984V23.9751V24.0518V24.1285V24.2052V24.2819V24.3586V24.4353V24.512V24.5887V24.6654V24.7421V24.8187V24.8954V24.9721V25.0488V25.1254V25.2021V25.2788V25.3555V25.4321V25.5088V25.5855V25.6622V25.7388V25.8155V25.8922V25.9689V26.0456V26.1223V26.199V26.2756V26.3524V26.4291V26.5058V26.5825V26.6592V26.7359V26.8127V26.8894V26.9661V27.0429V27.1197V27.1964V27.2732V27.35V27.4268V27.5036V27.5804V27.6572V27.734V27.8109V27.8877V27.9646V28.0415V28.1184V28.1953V28.2722V28.3491V28.426V28.503V28.5799V28.6569V28.7339V28.8109V28.8879V28.9649V29.042V29.119V29.1961V29.2732V29.3503V29.4275V29.5046V29.5818V29.6589V29.7361V29.8134V29.8906V29.9679V30.0451V30.1224V30.1997V30.2771V30.3544V30.4318V30.5092V30.5866V30.6641V30.7415V30.819V30.8965V30.9741V31.0516V31.1292V31.2068V31.2844V31.3621V31.4398V31.5175V31.5952V31.673V31.7508V31.8286V31.9064V31.9843V32.0622V32.1401V32.218V32.296V32.374V32.4521V32.5301V32.6082V32.6864V32.7645V32.8427V32.9209V32.9992V33.0775V33.1558V33.2341V33.3125V33.3909V33.4694V33.5478V33.6264V33.7049V33.7835V33.8621V33.9408V34.0195V34.0982V34.177V34.2558V34.3346V34.4135V34.4924V34.5713V34.6503V34.7293V34.8084V34.8875V34.9667V35.0458V35.1251V35.2043V35.2836V35.363V35.4424V35.5218V35.6013V35.6808V35.7604V35.84V35.9196V35.9993V36.079V36.1588V36.2386V36.3185V36.3984V36.4784V36.5584V36.6384V36.7185V36.7987V36.8789V36.9591V37.0394V37.1197V37.2001V37.2805V37.361V37.4416V37.5221V37.6028V37.6834V37.7642V37.845V37.9258V38.0067V38.0876V38.1686V38.2497V38.3307V38.4119V38.4931V38.5744V38.6557V38.737V38.8185V38.8999V38.9815V39.0631V39.1447V39.2264V39.3082V39.39V39.4718V39.5538V39.6358V39.7178V39.7999V39.8821V39.9643V40.0466V40.1289V40.2113V40.2938V40.3763V40.4589V40.5416V40.6243V40.707V40.7899V40.8728V40.9557V41.0388V41.1218V41.205V41.2882V41.3715V41.4548V41.5383V41.6217V41.7053V41.7889V41.8726V41.9563V42.0401V42.124V42.208V42.292V42.3761V42.4602V42.5444V42.6287V42.7131V42.7975V42.882V42.9666V43.0512V43.136V43.2208V43.3056V43.3905V43.4756V43.5606V43.6458V43.731V43.8163V43.9017V43.9871V44.0727V44.1583V44.2439V44.3297V44.4155V44.5014V44.5874V44.6735V44.7596V44.8458V44.9321V45.0185V45.1049V45.1915V45.2781V45.3648V45.4515V45.5384V45.6253V45.7123V45.7994V45.8866V45.9739V46.0612V46.1486V46.2361V46.3237V46.4114V46.4991V46.587V46.6749V46.7629V46.851V46.9392V47.0275V47.1158V47.2042V47.2928V47.3814V47.4701V47.5589V47.6477V47.7367V47.8258V47.9149V48.0041V48.0935V48.1829V48.2724V48.362V48.4517V48.5414V48.6313V48.7213V48.8113V48.9015V48.9917V49.082V49.1725V49.263V49.3536V49.4443V49.5351V49.626V49.717V49.8081V49.8993V49.9905V50.0819V50.1734V50.265V50.3566V50.4484V50.5403V50.6322V50.7243V50.8165V50.9087V51.0011V51.0935V51.1861V51.2788V51.3715V51.4644V51.5574V51.6504V51.7436V51.8369V51.9303V52.0238V52.1173V52.211V52.3048V52.3987V52.4927V52.5868V52.6811V52.7754V52.8698C44.5 56.0491 42.2605 58.6793 38.1754 60.5958C34.1194 62.4987 28.6028 63.4941 22.9984 63.5C17.3938 63.5059 11.8783 62.5221 7.82381 60.6227C3.74324 58.7112 1.5 56.0761 1.5 52.8698V52.7748V52.68V52.5854V52.4909V52.3966V52.3024V52.2084V52.1146V52.0209V51.9273V51.834V51.7408V51.6477V51.5548V51.462V51.3694V51.277V51.1847V51.0925V51.0006V50.9087V50.817V50.7255V50.6341V50.5428V50.4517V50.3608V50.27V50.1793V50.0888V49.9984V49.9082V49.8181V49.7282V49.6384V49.5487V49.4592V49.3698V49.2806V49.1915V49.1025V49.0137V48.925V48.8364V48.748V48.6597V48.5715V48.4835V48.3956V48.3079V48.2202V48.1327V48.0454V47.9581V47.871V47.7841V47.6972V47.6105V47.5239V47.4374V47.3511V47.2648V47.1787V47.0928V47.0069V46.9212V46.8356V46.7501V46.6647V46.5794V46.4943V46.4093V46.3244V46.2396V46.1549V46.0704V45.9859V45.9016V45.8174V45.7333V45.6493V45.5655V45.4817V45.398V45.3145V45.2311V45.1477V45.0645V44.9814V44.8984V44.8155V44.7327V44.65V44.5674V44.485V44.4026V44.3203V44.2381V44.1561V44.0741V43.9922V43.9104V43.8288V43.7472V43.6657V43.5843V43.503V43.4218V43.3407V43.2597V43.1788V43.098V43.0172V42.9366V42.856V42.7756V42.6952V42.6149V42.5347V42.4546V42.3746V42.2947V42.2148V42.135V42.0554V41.9758V41.8963V41.8168V41.7375V41.6582V41.579V41.4999V41.4209V41.3419V41.263V41.1842V41.1055V41.0269V40.9483V40.8698V40.7914V40.713V40.6348V40.5566V40.4784V40.4004V40.3224V40.2444V40.1666V40.0888V40.0111V39.9334V39.8559V39.7783V39.7009V39.6235V39.5462V39.4689V39.3917V39.3146V39.2375V39.1605V39.0835V39.0066V38.9298V38.853V38.7763V38.6996V38.623V38.5464V38.4699V38.3935V38.3171V38.2408V38.1645V38.0882V38.0121V37.9359V37.8598V37.7838V37.7078V37.6319V37.556V37.4801V37.4043V37.3286V37.2529V37.1772V37.1016V37.026V36.9505V36.875V36.7995V36.7241V36.6487V36.5734V36.4981V36.4228V36.3476V36.2724V36.1972V36.1221V36.047V35.972V35.897V35.822V35.747V35.6721V35.5972V35.5224V35.4475V35.3727V35.298V35.2232V35.1485V35.0738V34.9991V34.9245V34.8499V34.7753V34.7007V34.6261V34.5516V34.4771V34.4026V34.3282V34.2537V34.1793V34.1049V34.0305V33.9561V33.8817V33.8074V33.733V33.6587V33.5844V33.5101V33.4358V33.3616V33.2873V33.2131V33.1388V33.0646V32.9904V32.9162V32.842V32.7678V32.6936V32.6194V32.5452V32.471V32.3968V32.3227V32.2485V32.1743V32.1001V32.026V31.9518V31.8776V31.8034V31.7293V31.6551V31.5809V31.5067V31.4325V31.3583V31.2841V31.2099V31.1357V31.0614V30.9872V30.913V30.8387V30.7644V30.6902V30.6159V30.5416V30.4672V30.3929V30.3186V30.2442V30.1698V30.0954V30.021V29.9466V29.8721V29.7977V29.7232V29.6487V29.5741V29.4996V29.425V29.3504V29.2758V29.2011V29.1265V29.0518V28.9771V28.9023V28.8275V28.7527V28.6779V28.603V28.5282V28.4532V28.3783V28.3033V28.2283V28.1532V28.0782V28.003V27.9279V27.8527V27.7775V27.7022V27.6269V27.5516V27.4762V27.4008V27.3253V27.2498V27.1743V27.0987V27.0231V26.9474V26.8717V26.7959V26.7201V26.6443V26.5684V26.4925V26.4165V26.3404V26.2644V26.1882V26.112V26.0358V25.9595V25.8832V25.8068V25.7303V25.6538V25.5773V25.5007V25.424V25.3473V25.2705V25.1937V25.1168V25.0398V24.9628V24.8857V24.8086V24.7314V24.6541V24.5768V24.4994V24.4219V24.3444V24.2668V24.1892V24.1115V24.0337V23.9558V23.8779V23.7999V23.7219V23.6437V23.5655V23.4872V23.4089V23.3305V23.252V23.1734V23.0948V23.016V22.9372V22.8584V22.7794V22.7004V22.6213V22.5421V22.4628V22.3835V22.304V22.2245V22.1449V22.0652V21.9855V21.9056V21.8257V21.7457V21.6656V21.5854V21.5051V21.4247V21.3442V21.2637V21.1831V21.1023V21.0215V20.9406V20.8596V20.7785V20.6973V20.616V20.5346V20.4531V20.3715V20.2898V20.2081V20.1262V20.0442V19.9621V19.88V19.7977V19.7153V19.6328V19.5502V19.4676V19.3848V19.3019V19.2189V19.1358V19.0525V18.9692V18.8858V18.8022V18.7186V18.6348V18.5509V18.467V18.3829V18.2987V18.2143V18.1299V18.0453V17.9607V17.8759V17.791V17.706V17.6208V17.5356V17.4502V17.3647V17.2791V17.1934V17.1075V17.0215V16.9354V16.8492V16.7629V16.6764V16.5898V16.5031V16.4162V16.3292V16.2421V16.1549V16.0675V15.98V15.8924V15.8047V15.7168V15.6287V15.5406V15.4523V15.3639V15.2753V15.1866V15.0978V15.0088V14.9197V14.8305V14.7411V14.6516V14.5619V14.4721V14.3822V14.2921V14.2018V14.1115V14.021V13.9303V13.8395V13.7485V13.6574V13.5662V13.4748V13.3833V13.2916V13.1997V13.1077V13.0156V12.9233V12.8308V12.7382V12.6455V12.5526V12.4595V12.3663V12.2729V12.1794V12.0857V11.9919V11.8979V11.8037V11.7094V11.6149V11.5202V11.4254V11.3305Z" stroke="#368AFE" stroke-width="3"/>
<line x1="1" y1="52.8284" x2="45" y2="52.8284" stroke="#368AFE" stroke-width="3"/>
<path d="M1 10.6716L45 10.6716" stroke="#368AFE" stroke-width="3"/>
<path d="M18 58.209H23.5H29" stroke="#368AFE" stroke-width="3" stroke-linecap="round"/>
<mask id="path-5-inside-1" fill="white">
<ellipse cx="23.5" cy="5.8209" rx="2.5" ry="1.9403"/>
</mask>
<ellipse cx="23.5" cy="5.8209" rx="2.5" ry="1.9403" fill="#368AFE"/>
<path d="M23 5.8209C23 5.24442 23.3087 4.91582 23.4284 4.82294C23.5442 4.73308 23.5795 4.7612 23.5 4.7612V10.7612C25.7857 10.7612 29 9.21239 29 5.8209H23ZM23.5 4.7612C23.4205 4.7612 23.4558 4.73308 23.5716 4.82294C23.6913 4.91582 24 5.24442 24 5.8209H18C18 9.21239 21.2143 10.7612 23.5 10.7612V4.7612ZM24 5.8209C24 6.39737 23.6913 6.72598 23.5716 6.81886C23.4558 6.90872 23.4205 6.8806 23.5 6.8806V0.8806C21.2143 0.8806 18 2.42941 18 5.8209H24ZM23.5 6.8806C23.5795 6.8806 23.5442 6.90872 23.4284 6.81886C23.3087 6.72598 23 6.39737 23 5.8209H29C29 2.42941 25.7857 0.8806 23.5 0.8806V6.8806Z" fill="#368AFE" mask="url(#path-5-inside-1)"/>
<path d="M17.1161 18.2211C26.8333 14.5 35.9375 25 32.6962 36.8988" stroke="#3693FF" stroke-width="3" stroke-linecap="round" stroke-linejoin="bevel"/>
<path d="M15.8481 24.3707C22.457 22.3648 29.9094 29.8614 25.9953 37" stroke="#3693FF" stroke-width="3" stroke-linecap="round"/>
</svg>
