<svg width="144" height="23" viewBox="0 0 144 23" fill="none" xmlns="http://www.w3.org/2000/svg">
<path fill-rule="evenodd" clip-rule="evenodd" d="M12.9323 16.584C12.9323 15.7539 12.6393 15.1191 12.0534 14.6797C11.4675 14.2305 10.4128 13.7617 8.88934 13.2734C7.36591 12.7754 6.15985 12.2871 5.27118 11.8086C2.8493 10.5 1.63837 8.7373 1.63837 6.52051C1.63837 5.36816 1.96063 4.34277 2.60516 3.44434C3.25946 2.53613 4.19208 1.82812 5.40302 1.32031C6.62372 0.8125 7.99091 0.558594 9.50458 0.558594C11.028 0.558594 12.3854 0.836914 13.5768 1.39355C14.7682 1.94043 15.6911 2.7168 16.3454 3.72266C17.0095 4.72852 17.3415 5.87109 17.3415 7.15039H12.947C12.947 6.17383 12.6393 5.41699 12.0241 4.87988C11.4089 4.33301 10.5446 4.05957 9.43134 4.05957C8.35712 4.05957 7.52216 4.28906 6.92645 4.74805C6.33075 5.19727 6.0329 5.79297 6.0329 6.53516C6.0329 7.22852 6.37958 7.80957 7.07294 8.27832C7.77606 8.74707 8.80634 9.18652 10.1638 9.59668C12.6638 10.3486 14.485 11.2812 15.6276 12.3945C16.7702 13.5078 17.3415 14.8945 17.3415 16.5547C17.3415 18.4004 16.6432 19.8506 15.2468 20.9053C13.8503 21.9502 11.9704 22.4727 9.60712 22.4727C7.96649 22.4727 6.47235 22.1748 5.1247 21.5791C3.77704 20.9736 2.74677 20.1484 2.03387 19.1035C1.33075 18.0586 0.979187 16.8477 0.979187 15.4707H5.38837C5.38837 17.8242 6.79462 19.001 9.60712 19.001C10.652 19.001 11.4675 18.791 12.0534 18.3711C12.6393 17.9414 12.9323 17.3457 12.9323 16.584ZM32.3708 17.7852H24.6657L23.2009 22.1797H18.528L26.4675 0.851562H30.5397L38.5231 22.1797H33.8503L32.3708 17.7852ZM25.8522 14.2256H31.1843L28.5036 6.24219L25.8522 14.2256ZM46.2575 0.851562L51.736 16.3203L57.1852 0.851562H62.9567V22.1797H58.5475V16.3496L58.987 6.28613L53.2302 22.1797H50.2126L44.4704 6.30078L44.9098 16.3496V22.1797H40.5153V0.851562H46.2575ZM77.8542 16.584C77.8542 15.7539 77.5612 15.1191 76.9753 14.6797C76.3893 14.2305 75.3347 13.7617 73.8112 13.2734C72.2878 12.7754 71.0817 12.2871 70.1931 11.8086C67.7712 10.5 66.5602 8.7373 66.5602 6.52051C66.5602 5.36816 66.8825 4.34277 67.527 3.44434C68.1813 2.53613 69.114 1.82812 70.3249 1.32031C71.5456 0.8125 72.9128 0.558594 74.4265 0.558594C75.9499 0.558594 77.3073 0.836914 78.4987 1.39355C79.6901 1.94043 80.613 2.7168 81.2673 3.72266C81.9313 4.72852 82.2634 5.87109 82.2634 7.15039H77.8688C77.8688 6.17383 77.5612 5.41699 76.946 4.87988C76.3308 4.33301 75.4665 4.05957 74.3532 4.05957C73.279 4.05957 72.444 4.28906 71.8483 4.74805C71.2526 5.19727 70.9548 5.79297 70.9548 6.53516C70.9548 7.22852 71.3015 7.80957 71.9948 8.27832C72.6979 8.74707 73.7282 9.18652 75.0856 9.59668C77.5856 10.3486 79.4069 11.2812 80.5495 12.3945C81.6921 13.5078 82.2634 14.8945 82.2634 16.5547C82.2634 18.4004 81.5651 19.8506 80.1686 20.9053C78.7722 21.9502 76.8923 22.4727 74.529 22.4727C72.8884 22.4727 71.3942 22.1748 70.0466 21.5791C68.6989 20.9736 67.6686 20.1484 66.9558 19.1035C66.2526 18.0586 65.9011 16.8477 65.9011 15.4707H70.3102C70.3102 17.8242 71.7165 19.001 74.529 19.001C75.5739 19.001 76.3893 18.791 76.9753 18.3711C77.5612 17.9414 77.8542 17.3457 77.8542 16.584ZM101.394 0.851562V14.8994C101.394 17.2334 100.662 19.0791 99.197 20.4365C97.7419 21.7939 95.7497 22.4727 93.2204 22.4727C90.7302 22.4727 88.7526 21.8135 87.2878 20.4951C85.8229 19.1768 85.0759 17.3652 85.0466 15.0605V0.851562H89.4411V14.9287C89.4411 16.3252 89.7731 17.3457 90.4372 17.9902C91.111 18.625 92.0388 18.9424 93.2204 18.9424C95.6911 18.9424 96.946 17.6436 96.985 15.0459V0.851562H101.394ZM122.341 22.1797H117.947L109.392 8.14648V22.1797H104.998V0.851562H109.392L117.962 14.9141V0.851562H122.341V22.1797ZM143.054 19.4844C142.263 20.4316 141.145 21.1689 139.7 21.6963C138.255 22.2139 136.653 22.4727 134.895 22.4727C133.049 22.4727 131.428 22.0723 130.032 21.2715C128.645 20.4609 127.571 19.2891 126.809 17.7559C126.057 16.2227 125.672 14.4209 125.652 12.3506V10.9004C125.652 8.77148 126.008 6.93066 126.721 5.37793C127.444 3.81543 128.479 2.62402 129.827 1.80371C131.184 0.973633 132.771 0.558594 134.588 0.558594C137.117 0.558594 139.094 1.16406 140.52 2.375C141.946 3.57617 142.791 5.3291 143.054 7.63379H138.777C138.582 6.41309 138.147 5.51953 137.473 4.95312C136.809 4.38672 135.891 4.10352 134.719 4.10352C133.225 4.10352 132.088 4.66504 131.306 5.78809C130.525 6.91113 130.13 8.58105 130.12 10.7979V12.1602C130.12 14.3965 130.545 16.0859 131.394 17.2285C132.244 18.3711 133.489 18.9424 135.13 18.9424C136.78 18.9424 137.957 18.5908 138.66 17.8877V14.2109H134.661V10.9736H143.054V19.4844Z" fill="#D4D8E4"/>
</svg>
