<svg width="25" height="25" viewBox="0 0 25 25" fill="none" xmlns="http://www.w3.org/2000/svg">
<path fill-rule="evenodd" clip-rule="evenodd" d="M5.95129 1.85068C2.89874 3.73181 0.716187 6.8887 0.146851 10.5781C4.75754 11.1141 8.86295 10.3004 12.2816 8.98557C11.9569 8.5307 11.6269 8.0892 11.2943 7.66156C9.48868 5.34012 7.63098 3.45712 6.21494 2.1019C6.12442 2.01526 6.03659 1.93158 5.95129 1.85068ZM0 12.5C0 12.3568 0.00241089 12.2141 0.00720215 12.072C5.03717 12.6507 9.49106 11.7136 13.1497 10.2563C14.0488 11.6338 14.881 13.1178 15.577 14.6955C11.668 15.7127 7.396 17.6653 3.60721 21.2846C1.37686 19.0269 0 15.9243 0 12.5ZM4.72693 22.2899C6.86081 23.9864 9.56204 25 12.5 25C14.3201 25 16.0494 24.611 17.6092 23.9116C17.6177 21.1367 17.0553 18.5179 16.1487 16.0972C12.4134 17.0412 8.33875 18.8716 4.72693 22.2899ZM18.123 15.6704C18.9265 17.8865 19.4666 20.2725 19.5851 22.7996C22.1492 21.0323 24.0209 18.3323 24.71 15.1894C23.2814 15.1447 21.4919 15.1872 19.5003 15.4539C19.0506 15.5142 18.5909 15.5858 18.123 15.6704ZM24.9435 13.6965C24.9809 13.3027 25 12.9036 25 12.5C25 9.54935 23.9776 6.83749 22.2679 4.69931C22.2222 4.73868 22.1757 4.77853 22.1284 4.81885C20.89 5.87375 19.0797 7.24667 16.7854 8.52463C16.2215 8.83871 15.6279 9.14734 15.0059 9.44421C15.9514 10.9221 16.8311 12.5286 17.5629 14.2488C18.1561 14.1358 18.7366 14.0429 19.3011 13.9673C21.4742 13.6761 23.4166 13.6399 24.9435 13.6965ZM12.5 0C15.9131 0 19.0068 1.36795 21.2625 3.58551C21.2274 3.61569 21.1918 3.64618 21.1557 3.67697C19.9756 4.68225 18.246 5.99402 16.0555 7.2142C15.4579 7.54709 14.8265 7.87286 14.1632 8.18356C13.7388 7.57474 13.3065 6.99103 12.8729 6.43365C11.0895 4.14078 9.26593 2.26709 7.84564 0.895264C9.28418 0.31778 10.855 0 12.5 0Z" fill="white"/>
</svg>
